<svg xmlns="http://www.w3.org/2000/svg" viewBox="0 0 420 300" role="img" aria-label="Brake disc spare part">
  <defs>
    <radialGradient id="disc" cx="48%" cy="45%" r="58%">
      <stop offset="0" stop-color="#111827"/>
      <stop offset=".28" stop-color="#303744"/>
      <stop offset=".58" stop-color="#d9dde1"/>
      <stop offset=".82" stop-color="#8f98a2"/>
      <stop offset="1" stop-color="#f7f8fa"/>
    </radialGradient>
    <linearGradient id="caliper" x1="0" x2="1">
      <stop offset="0" stop-color="#151922"/>
      <stop offset=".55" stop-color="#2e343d"/>
      <stop offset="1" stop-color="#090b10"/>
    </linearGradient>
    <filter id="shadow" x="-20%" y="-20%" width="140%" height="145%">
      <feDropShadow dx="0" dy="14" stdDeviation="10" flood-color="#071827" flood-opacity=".22"/>
    </filter>
  </defs>
  <g filter="url(#shadow)">
    <ellipse cx="212" cy="253" rx="116" ry="18" fill="#071827" opacity=".18"/>
    <circle cx="210" cy="154" r="102" fill="url(#disc)"/>
    <circle cx="210" cy="154" r="78" fill="none" stroke="#171d25" stroke-width="10"/>
    <circle cx="210" cy="154" r="43" fill="#111827" stroke="#3d4652" stroke-width="8"/>
    <circle cx="210" cy="154" r="18" fill="#05070a"/>
    <g fill="#0d1117">
      <circle cx="210" cy="102" r="6"/>
      <circle cx="255" cy="128" r="6"/>
      <circle cx="255" cy="180" r="6"/>
      <circle cx="210" cy="206" r="6"/>
      <circle cx="165" cy="180" r="6"/>
      <circle cx="165" cy="128" r="6"/>
    </g>
    <g stroke="#222a34" stroke-width="5" stroke-linecap="round" opacity=".8">
      <path d="M290 116c-16 4-30 10-42 20"/>
      <path d="M291 192c-17-5-31-12-43-23"/>
      <path d="M130 116c16 4 30 10 42 20"/>
      <path d="M129 192c17-5 31-12 43-23"/>
    </g>
    <path d="M125 80c20-39 60-55 100-43 21 6 37 20 47 38 8 14 6 31-3 44-8 13-23 19-38 14l-73-25c-14-5-39-3-33-28z" fill="url(#caliper)" stroke="#4c5560" stroke-width="4"/>
    <path d="M143 70c16-19 42-27 67-21 20 5 35 17 44 33" fill="none" stroke="#7a828b" stroke-width="4" opacity=".7"/>
    <circle cx="155" cy="86" r="9" fill="#e6ebef" stroke="#111827" stroke-width="4"/>
    <circle cx="253" cy="92" r="9" fill="#e6ebef" stroke="#111827" stroke-width="4"/>
  </g>
</svg>
