<svg xmlns="http://www.w3.org/2000/svg" viewBox="0 0 640 420">
  <defs>
    <linearGradient id="body" x1="0" x2="1" y1="0" y2="1">
      <stop offset="0" stop-color="#2fb648"/>
      <stop offset="1" stop-color="#087d30"/>
    </linearGradient>
    <linearGradient id="glass" x1="0" x2="1" y1="0" y2="1">
      <stop offset="0" stop-color="#263a46"/>
      <stop offset="1" stop-color="#0b1820"/>
    </linearGradient>
    <filter id="shadow" x="-20%" y="-20%" width="140%" height="150%">
      <feDropShadow dx="0" dy="18" stdDeviation="14" flood-color="#071827" flood-opacity=".22"/>
    </filter>
  </defs>
  <ellipse cx="326" cy="360" rx="250" ry="34" fill="#071827" opacity=".14"/>
  <g filter="url(#shadow)">
    <circle cx="190" cy="302" r="82" fill="#1e252b"/>
    <circle cx="190" cy="302" r="62" fill="#11171c"/>
    <circle cx="190" cy="302" r="44" fill="#f1ca3a"/>
    <circle cx="190" cy="302" r="24" fill="#27313a"/>
    <g stroke="#59646c" stroke-width="8">
      <path d="M190 220v164M108 302h164M132 244l116 116M248 244 132 360"/>
    </g>
    <circle cx="466" cy="318" r="50" fill="#1e252b"/>
    <circle cx="466" cy="318" r="37" fill="#11171c"/>
    <circle cx="466" cy="318" r="25" fill="#f1ca3a"/>
    <circle cx="466" cy="318" r="13" fill="#27313a"/>
    <path d="M166 238h56l28-92h138l47 112H227z" fill="url(#body)" stroke="#0e5c2d" stroke-width="7" stroke-linejoin="round"/>
    <path d="M283 145h99l34 84H248z" fill="#128336"/>
    <path d="M302 68h80l28 77H274z" fill="#1e272f" stroke="#0e1720" stroke-width="7" stroke-linejoin="round"/>
    <path d="M315 82h53l17 51h-86z" fill="url(#glass)"/>
    <path d="M275 145V70M410 145V98M350 68V38" stroke="#18232b" stroke-width="9" stroke-linecap="round"/>
    <path d="M248 236h156l-14 36H231z" fill="#0f6d32"/>
    <path d="M422 254h70l27 42h-66z" fill="url(#body)" stroke="#0e5c2d" stroke-width="7" stroke-linejoin="round"/>
    <path d="M502 291h53" stroke="#172028" stroke-width="10" stroke-linecap="round"/>
    <path d="M108 251h63M401 255h82" stroke="#202b33" stroke-width="10" stroke-linecap="round"/>
    <rect x="338" y="166" width="70" height="42" rx="10" fill="#f1ca3a" stroke="#0e5c2d" stroke-width="7"/>
    <path d="M230 178h-66l-43 42" stroke="#202b33" stroke-width="9" stroke-linecap="round" stroke-linejoin="round"/>
    <path d="M112 221h78" stroke="#202b33" stroke-width="10" stroke-linecap="round"/>
    <path d="M234 122h-36l-20 35" stroke="#202b33" stroke-width="8" stroke-linecap="round" stroke-linejoin="round"/>
    <circle cx="438" cy="234" r="10" fill="#f7df75"/>
    <circle cx="232" cy="219" r="9" fill="#f7df75"/>
  </g>
</svg>
